<svg fill="#7C8FA1" xmlns="http://www.w3.org/2000/svg" xmlns:xlink="http://www.w3.org/1999/xlink" version="1.1" x="0px" y="0px" viewBox="0 0 100 100" enable-background="new 0 0 100 100" xml:space="preserve"><path d="M85.978,87.238H14.024c-3.773,0-6.844-3.069-6.844-6.842V19.605c0-3.901,2.942-6.844,6.844-6.844h17.368  c2.346,0,3.851,1.691,4.949,2.927c0.44,0.495,1.261,1.417,1.564,1.417h38.918c1.381,0,2.5,1.119,2.5,2.5s-1.119,2.5-2.5,2.5H37.906  c-2.548,0-4.139-1.788-5.3-3.094c-0.386-0.434-1.031-1.159-1.309-1.264l-17.273,0.014c-1.138,0-1.844,0.706-1.844,1.844v60.791  c0,1.016,0.827,1.842,1.844,1.842h71.953c1.016,0,1.842-0.827,1.842-1.844V34.182c0-1.016-0.826-1.842-1.842-1.842H22.501v38.648  c0,1.381-1.119,2.5-2.5,2.5s-2.5-1.119-2.5-2.5V29.84c0-1.381,1.119-2.5,2.5-2.5h65.977c3.772,0,6.842,3.069,6.842,6.842v46.213  C92.819,84.168,89.75,87.238,85.978,87.238z"></path></svg>